<svg xmlns="http://www.w3.org/2000/svg" width="39.998" height="39.999" viewBox="0 0 39.998 39.999">
    <g id="Artboard_1" data-name="Artboard 1" transform="translate(-.002 8.002)">
        <path id="Union_7" fill="#f7f6f2" d="M19456-6196a20 20 0 0 1 20-20 20 20 0 0 1 20 20 20 20 0 0 1-20 20 20 20 0 0 1-20-20zm2.148-.034a17.83 17.83 0 0 0 17.814 17.849 17.835 17.835 0 0 0 17.854-17.815 17.853 17.853 0 0 0-17.82-17.849h-.018a17.831 17.831 0 0 0-17.828 17.815zm18.846 5.749l-.248-.23-8.676 6.155v-2.823l7.1-4.858-2.1-2.124h-5v-2.246h12.6v-4.957h-12.6v-2.241h12.6v-4.873h2.25v14.316h-6.756l6.756 6.6v3.2z" data-name="Union 7" transform="translate(-19456 6208)"/>
    </g>
</svg>
